ffmpeg version 7.0.2 Copyright (c) 2000-2024 the FFmpeg developers
  built with Apple clang version 15.0.0 (clang-1500.3.9.4)
  configuration: --prefix=/opt/homebrew/Cellar/ffmpeg/7.0.2_1 --enable-shared --enable-pthreads --enable-version3 --cc=clang --host-cflags= --host-ldflags='-Wl,-ld_classic' --enable-ffplay --enable-gnutls --enable-gpl --enable-libaom --enable-libaribb24 --enable-libbluray --enable-libdav1d --enable-libharfbuzz --enable-libjxl --enable-libmp3lame --enable-libopus --enable-librav1e --enable-librist --enable-librubberband --enable-libsnappy --enable-libsrt --enable-libssh --enable-libsvtav1 --enable-libtesseract --enable-libtheora --enable-libvidstab --enable-libvmaf --enable-libvorbis --enable-libvpx --enable-libwebp --enable-libx264 --enable-libx265 --enable-libxml2 --enable-libxvid --enable-lzma --enable-libfontconfig --enable-libfreetype --enable-frei0r --enable-libass --enable-libopencore-amrnb --enable-libopencore-amrwb --enable-libopenjpeg --enable-libspeex --enable-libsoxr --enable-libzmq --enable-libzimg --disable-libjack --disable-indev=jack --enable-videotoolbox --enable-audiotoolbox --enable-neon
  libavutil      59.  8.100 / 59.  8.100
  libavcodec     61.  3.100 / 61.  3.100
  libavformat    61.  1.100 / 61.  1.100
  libavdevice    61.  1.100 / 61.  1.100
  libavfilter    10.  1.100 / 10.  1.100
  libswscale      8.  1.100 /  8.  1.100
  libswresample   5.  1.100 /  5.  1.100
  libpostproc    58.  1.100 / 58.  1.100
Input #0, mov,mp4,m4a,3gp,3g2,mj2, from 'temp_id5_5_trajectory.mov':
  Metadata:
    major_brand     : qt  
    minor_version   : 512
    compatible_brands: qt  
    encoder         : Lavf60.3.100
  Duration: 00:00:05.30, start: 0.000000, bitrate: 9180 kb/s
  Stream #0:0[0x1]: Video: mpeg4 (Simple Profile) (mp4v / 0x7634706D), yuv420p, 1920x1080 [SAR 1:1 DAR 16:9], 9178 kb/s, 30 fps, 30 tbr, 15360 tbn (default)
      Metadata:
        handler_name    : VideoHandler
        vendor_id       : FFMP
Stream mapping:
  Stream #0:0 -> #0:0 (mpeg4 (native) -> h264 (libx264))
Press [q] to stop, [?] for help
[libx264 @ 0x141805830] using SAR=1/1
[libx264 @ 0x141805830] using cpu capabilities: ARMv8 NEON
[libx264 @ 0x141805830] profile High, level 4.0, 4:2:0, 8-bit
[libx264 @ 0x141805830] 264 - core 164 r3108 31e19f9 - H.264/MPEG-4 AVC codec - Copyleft 2003-2023 - http://www.videolan.org/x264.html - options: cabac=1 ref=3 deblock=1:0:0 analyse=0x3:0x113 me=hex subme=7 psy=1 psy_rd=1.00:0.00 mixed_ref=1 me_range=16 chroma_me=1 trellis=1 8x8dct=1 cqm=0 deadzone=21,11 fast_pskip=1 chroma_qp_offset=-2 threads=15 lookahead_threads=2 sliced_threads=0 nr=0 decimate=1 interlaced=0 bluray_compat=0 constrained_intra=0 bframes=3 b_pyramid=2 b_adapt=1 b_bias=0 direct=1 weightb=1 open_gop=0 weightp=2 keyint=250 keyint_min=25 scenecut=40 intra_refresh=0 rc_lookahead=40 rc=crf mbtree=1 crf=23.0 qcomp=0.60 qpmin=0 qpmax=69 qpstep=4 ip_ratio=1.40 aq=1:1.00
Output #0, mp4, to 'static/converted_id5_5_trajectory.mp4':
  Metadata:
    major_brand     : qt  
    minor_version   : 512
    compatible_brands: qt  
    encoder         : Lavf61.1.100
  Stream #0:0: Video: h264 (avc1 / 0x31637661), yuv420p(progressive), 1920x1080 [SAR 1:1 DAR 16:9], q=2-31, 30 fps, 15360 tbn (default)
      Metadata:
        handler_name    : VideoHandler
        vendor_id       : FFMP
        encoder         : Lavc61.3.100 libx264
      Side data:
        cpb: bitrate max/min/avg: 0/0/0 buffer size: 0 vbv_delay: N/A
frame=   13 fps=0.0 q=29.0 size=     256KiB time=00:00:00.36 bitrate=5720.5kbits/s speed=0.726x    frame=   59 fps= 59 q=29.0 size=    1024KiB time=00:00:01.90 bitrate=4415.3kbits/s speed=1.89x    frame=  119 fps= 79 q=29.0 size=    1792KiB time=00:00:03.90 bitrate=3764.2kbits/s speed=2.58x    [out#0/mp4 @ 0x141804950] video:2578KiB audio:0KiB subtitle:0KiB other streams:0KiB global headers:0KiB muxing overhead: 0.085195%
frame=  159 fps= 90 q=-1.0 Lsize=    2580KiB time=00:00:05.23 bitrate=4038.8kbits/s speed=2.95x    
[libx264 @ 0x141805830] frame I:1     Avg QP:21.33  size: 48025
[libx264 @ 0x141805830] frame P:108   Avg QP:21.77  size: 19663
[libx264 @ 0x141805830] frame B:50    Avg QP:23.04  size:  9350
[libx264 @ 0x141805830] consecutive B-frames: 52.2% 11.3% 18.9% 17.6%
[libx264 @ 0x141805830] mb I  I16..4: 45.7% 52.9%  1.4%
[libx264 @ 0x141805830] mb P  I16..4:  5.4% 11.1%  0.1%  P16..4: 44.2%  4.7%  3.3%  0.0%  0.0%    skip:31.1%
[libx264 @ 0x141805830] mb B  I16..4:  1.9%  5.0%  0.0%  B16..8: 31.5%  2.1%  0.2%  direct: 4.3%  skip:55.0%  L0:53.6% L1:43.5% BI: 2.9%
[libx264 @ 0x141805830] 8x8 transform intra:66.9% inter:88.6%
[libx264 @ 0x141805830] coded y,uvDC,uvAC intra: 23.9% 55.6% 3.8% inter: 9.4% 27.9% 0.1%
[libx264 @ 0x141805830] i16 v,h,dc,p: 27% 44% 22%  8%
[libx264 @ 0x141805830] i8 v,h,dc,ddl,ddr,vr,hd,vl,hu: 17% 23% 55%  1%  1%  1%  1%  1%  1%
[libx264 @ 0x141805830] i4 v,h,dc,ddl,ddr,vr,hd,vl,hu: 21% 45% 12%  2%  5%  5%  4%  3%  2%
[libx264 @ 0x141805830] i8c dc,h,v,p: 44% 31% 23%  3%
[libx264 @ 0x141805830] Weighted P-Frames: Y:0.9% UV:0.0%
[libx264 @ 0x141805830] ref P L0: 68.2%  6.7% 17.0%  8.0%  0.0%
[libx264 @ 0x141805830] ref B L0: 79.6% 16.2%  4.2%
[libx264 @ 0x141805830] ref B L1: 96.5%  3.5%
[libx264 @ 0x141805830] kb/s:3983.59
